<mxfile>
    <diagram id="xjR2cc70RTAuetC5VNIb" name="Страница 1">
        <mxGraphModel dx="878" dy="518" grid="1" gridSize="10" guides="1" tooltips="1" connect="1" arrows="1" fold="1" page="1" pageScale="1" pageWidth="827" pageHeight="1169" math="0" shadow="0">
            <root>
                <mxCell id="0"/>
                <mxCell id="1" parent="0"/>
                <mxCell id="4TmruyjHZk0cEE7LhUGH-1" value="&lt;b&gt;Client&lt;/b&gt;" style="html=1;" parent="1" vertex="1">
                    <mxGeometry x="215" y="130" width="110" height="50" as="geometry"/>
                </mxCell>
                <mxCell id="4TmruyjHZk0cEE7LhUGH-2" value="Pilot" style="swimlane;fontStyle=1;align=center;verticalAlign=top;childLayout=stackLayout;horizontal=1;startSize=26;horizontalStack=0;resizeParent=1;resizeParentMax=0;resizeLast=0;collapsible=1;marginBottom=0;" parent="1" vertex="1">
                    <mxGeometry x="190" y="240" width="160" height="130" as="geometry"/>
                </mxCell>
                <mxCell id="4TmruyjHZk0cEE7LhUGH-3" value="- airShip: AirShip&#10;- allReady: bool&#10;- myState: bool" style="text;strokeColor=none;fillColor=none;align=left;verticalAlign=top;spacingLeft=4;spacingRight=4;overflow=hidden;rotatable=0;points=[[0,0.5],[1,0.5]];portConstraint=eastwest;" parent="4TmruyjHZk0cEE7LhUGH-2" vertex="1">
                    <mxGeometry y="26" width="160" height="54" as="geometry"/>
                </mxCell>
                <mxCell id="4TmruyjHZk0cEE7LhUGH-4" value="" style="line;strokeWidth=1;fillColor=none;align=left;verticalAlign=middle;spacingTop=-1;spacingLeft=3;spacingRight=3;rotatable=0;labelPosition=right;points=[];portConstraint=eastwest;" parent="4TmruyjHZk0cEE7LhUGH-2" vertex="1">
                    <mxGeometry y="80" width="160" height="8" as="geometry"/>
                </mxCell>
                <mxCell id="4TmruyjHZk0cEE7LhUGH-5" value="+ chek()&#10;+ flight()" style="text;strokeColor=none;fillColor=none;align=left;verticalAlign=top;spacingLeft=4;spacingRight=4;overflow=hidden;rotatable=0;points=[[0,0.5],[1,0.5]];portConstraint=eastwest;" parent="4TmruyjHZk0cEE7LhUGH-2" vertex="1">
                    <mxGeometry y="88" width="160" height="42" as="geometry"/>
                </mxCell>
                <mxCell id="4TmruyjHZk0cEE7LhUGH-6" value="Interface AirShip" style="swimlane;fontStyle=1;align=center;verticalAlign=top;childLayout=stackLayout;horizontal=1;startSize=26;horizontalStack=0;resizeParent=1;resizeParentMax=0;resizeLast=0;collapsible=1;marginBottom=0;" parent="1" vertex="1">
                    <mxGeometry x="460" y="262" width="180" height="140" as="geometry"/>
                </mxCell>
                <mxCell id="4TmruyjHZk0cEE7LhUGH-9" value="+ takeOff()&#10;+ climb(metersValue: int)&#10;+ decline(metersValue: int)&#10;+ landing();&#10;+ getHeight(): int&#10;+ getMaxHeight(): int&#10;+ getReady(): bool" style="text;strokeColor=none;fillColor=none;align=left;verticalAlign=top;spacingLeft=4;spacingRight=4;overflow=hidden;rotatable=0;points=[[0,0.5],[1,0.5]];portConstraint=eastwest;" parent="4TmruyjHZk0cEE7LhUGH-6" vertex="1">
                    <mxGeometry y="26" width="180" height="114" as="geometry"/>
                </mxCell>
                <mxCell id="4TmruyjHZk0cEE7LhUGH-13" value="" style="endArrow=open;endFill=1;endSize=12;html=1;exitX=0.5;exitY=1;exitDx=0;exitDy=0;" parent="1" source="4TmruyjHZk0cEE7LhUGH-1" target="4TmruyjHZk0cEE7LhUGH-2" edge="1">
                    <mxGeometry width="160" relative="1" as="geometry">
                        <mxPoint x="236" y="350" as="sourcePoint"/>
                        <mxPoint x="396" y="350" as="targetPoint"/>
                    </mxGeometry>
                </mxCell>
                <mxCell id="4TmruyjHZk0cEE7LhUGH-14" value="" style="endArrow=open;html=1;endSize=12;startArrow=diamondThin;startSize=14;startFill=0;align=left;verticalAlign=bottom;entryX=0.006;entryY=-0.154;entryDx=0;entryDy=0;entryPerimeter=0;" parent="1" edge="1">
                    <mxGeometry x="-0.4273" y="66" relative="1" as="geometry">
                        <mxPoint x="349" y="284" as="sourcePoint"/>
                        <mxPoint x="461.0799999999999" y="283.996" as="targetPoint"/>
                        <mxPoint as="offset"/>
                    </mxGeometry>
                </mxCell>
                <mxCell id="4TmruyjHZk0cEE7LhUGH-17" value="" style="endArrow=block;dashed=1;endFill=0;endSize=12;html=1;" parent="1" target="4TmruyjHZk0cEE7LhUGH-9" edge="1">
                    <mxGeometry width="160" relative="1" as="geometry">
                        <mxPoint x="548" y="440" as="sourcePoint"/>
                        <mxPoint x="547" y="403" as="targetPoint"/>
                    </mxGeometry>
                </mxCell>
                <mxCell id="4TmruyjHZk0cEE7LhUGH-18" value="" style="endArrow=none;html=1;edgeStyle=orthogonalEdgeStyle;dashed=1;" parent="1" edge="1">
                    <mxGeometry relative="1" as="geometry">
                        <mxPoint x="430" y="440" as="sourcePoint"/>
                        <mxPoint x="680" y="440" as="targetPoint"/>
                    </mxGeometry>
                </mxCell>
                <mxCell id="4TmruyjHZk0cEE7LhUGH-22" value="Rocket" style="swimlane;fontStyle=1;align=center;verticalAlign=top;childLayout=stackLayout;horizontal=1;startSize=26;horizontalStack=0;resizeParent=1;resizeParentMax=0;resizeLast=0;collapsible=1;marginBottom=0;" parent="1" vertex="1">
                    <mxGeometry x="340" y="480" width="180" height="224" as="geometry"/>
                </mxCell>
                <mxCell id="4TmruyjHZk0cEE7LhUGH-24" value="- maxHeight: int&#10;- temperature: double&#10;- speed: int&#10;- height: int&#10;- isReady: bool" style="text;fillColor=none;align=left;verticalAlign=top;spacingLeft=4;spacingRight=4;overflow=hidden;rotatable=0;points=[[0,0.5],[1,0.5]];portConstraint=eastwest;strokeColor=#FFFFFF;" parent="4TmruyjHZk0cEE7LhUGH-22" vertex="1">
                    <mxGeometry y="26" width="180" height="84" as="geometry"/>
                </mxCell>
                <mxCell id="4TmruyjHZk0cEE7LhUGH-23" value="+ takeOff()&#10;+ climb(metersValue: int)&#10;+ decline(metersValue: int)&#10;+ landing();&#10;+ getHeight(): int&#10;+ getMaxHeight(): int&#10;+ getReady(): bool" style="text;strokeColor=none;fillColor=none;align=left;verticalAlign=top;spacingLeft=4;spacingRight=4;overflow=hidden;rotatable=0;points=[[0,0.5],[1,0.5]];portConstraint=eastwest;" parent="4TmruyjHZk0cEE7LhUGH-22" vertex="1">
                    <mxGeometry y="110" width="180" height="114" as="geometry"/>
                </mxCell>
                <mxCell id="4TmruyjHZk0cEE7LhUGH-25" value="Airplane" style="swimlane;fontStyle=1;align=center;verticalAlign=top;childLayout=stackLayout;horizontal=1;startSize=26;horizontalStack=0;resizeParent=1;resizeParentMax=0;resizeLast=0;collapsible=1;marginBottom=0;" parent="1" vertex="1">
                    <mxGeometry x="580" y="480" width="180" height="224" as="geometry"/>
                </mxCell>
                <mxCell id="4TmruyjHZk0cEE7LhUGH-26" value="- maxHeight: int&#10;- temperature: double&#10;- speed: int&#10;- height: int&#10;- isReady: bool" style="text;fillColor=none;align=left;verticalAlign=top;spacingLeft=4;spacingRight=4;overflow=hidden;rotatable=0;points=[[0,0.5],[1,0.5]];portConstraint=eastwest;strokeColor=#FFFFFF;" parent="4TmruyjHZk0cEE7LhUGH-25" vertex="1">
                    <mxGeometry y="26" width="180" height="84" as="geometry"/>
                </mxCell>
                <mxCell id="4TmruyjHZk0cEE7LhUGH-27" value="+ takeOff()&#10;+ climb(metersValue: int)&#10;+ decline(metersValue: int)&#10;+ landing();&#10;+ getHeight(): int&#10;+ getMaxHeight(): int&#10;+ getReady(): bool" style="text;strokeColor=none;fillColor=none;align=left;verticalAlign=top;spacingLeft=4;spacingRight=4;overflow=hidden;rotatable=0;points=[[0,0.5],[1,0.5]];portConstraint=eastwest;" parent="4TmruyjHZk0cEE7LhUGH-25" vertex="1">
                    <mxGeometry y="110" width="180" height="114" as="geometry"/>
                </mxCell>
                <mxCell id="4TmruyjHZk0cEE7LhUGH-30" value="" style="endArrow=none;html=1;edgeStyle=orthogonalEdgeStyle;dashed=1;exitX=0.5;exitY=0;exitDx=0;exitDy=0;" parent="1" source="4TmruyjHZk0cEE7LhUGH-22" edge="1">
                    <mxGeometry relative="1" as="geometry">
                        <mxPoint x="290" y="440" as="sourcePoint"/>
                        <mxPoint x="430" y="440" as="targetPoint"/>
                    </mxGeometry>
                </mxCell>
                <mxCell id="4TmruyjHZk0cEE7LhUGH-33" value="" style="endArrow=none;html=1;edgeStyle=orthogonalEdgeStyle;dashed=1;exitX=0.5;exitY=0;exitDx=0;exitDy=0;" parent="1" edge="1">
                    <mxGeometry relative="1" as="geometry">
                        <mxPoint x="680" y="480" as="sourcePoint"/>
                        <mxPoint x="680" y="440" as="targetPoint"/>
                    </mxGeometry>
                </mxCell>
            </root>
        </mxGraphModel>
    </diagram>
</mxfile>